<svg version="1" xmlns="http://www.w3.org/2000/svg" width="1365.333" height="1365.333" viewBox="0 0 1024.000000 1024.000000"><path d="M709.7 123.6c-.1.1-5.1.5-11.2.9-6 .4-12.6.8-14.5 1-1.9.2-7.3.6-12 1-4.7.3-9.6.8-11 1-1.4.2-6.5.7-11.5 1.1-4.9.3-9.7.7-10.5.9-.8.2-5.3.6-10 1s-9.2.9-10.1 1c-.9.2-5.2.6-9.5 1s-8.8.9-9.9 1.1c-1 .2-4.9.6-8.5 1-3.6.3-7.2.7-8 .9-3.1.6-9.6 1.6-12.5 1.9-4.4.6-16 2.6-24 4.1-3.8.7-8.6 1.6-10.5 1.9-1.9.3-4.8.8-6.5 1.2-4.7.9-16.7 3.3-19.5 3.8-4.4 1-12.4 2.6-14.8 3.1-1.3.2-3.1.6-4 .9-.9.3-2.8.7-4.2 1-1.4.2-10.7 2.3-20.5 4.6-9.9 2.3-18.7 4.3-19.5 4.5-.8.2-3.5.8-6 1.4-2.5.7-5.6 1.4-7 1.7-1.4.3-9.7 2.3-18.5 4.5s-17.1 4.2-18.5 4.5c-1.4.3-4.8 1.2-7.6 2s-6 1.6-7 1.8c-1.1.2-10.9 2.7-21.9 5.6-11 2.8-20.7 5.3-21.5 5.5-.8.2-12.5 3.3-26 7s-27.9 7.6-32 8.7c-4.1 1.1-12.2 3.3-18 4.9-5.8 1.7-11.2 3.2-12.1 3.4-.9.2-12.8 3.5-26.5 7.5-13.7 3.9-25.6 7.3-26.4 7.5-3.2.7-54.8 15.7-60.6 17.6-3.3 1.1-6.9 2.1-8 2.4-2 .4-3.7.9-27.4 8-36.7 11.1-32.9 8.9-27.2 15.1 2.6 2.8 7.6 8.6 11.2 12.9 3.6 4.2 7 8.2 7.5 8.9 8.1 9.4 9.7 11.8 8.4 12.7-2.2 1.4-7.2 2.7-22.2 5.9-7.7 1.5-14.1 3.1-14.4 3.3-.3.3-.9 2-1.3 3.9-3.3 12.9-5.3 19.4-6.1 20.3-.5.5-8.2 2.4-17.1 4.2-8.9 1.8-16.3 3.5-16.6 3.8-.7.7 28.3 87.3 44.3 132 2.5 7.1 5 14.1 5.5 15.5 2.8 8.2 10.2 28.8 12.4 34.2 1.4 3.4 3.2 8.5 4.1 11.3 1 2.7 2.3 6.3 3 8 .7 1.6 3 7.5 5 13 23.6 62.8 47.3 117.6 64.6 149.2 1.6 2.9 4.3 7.9 6 11 15.5 28.3 37.1 62.6 53.1 84.3 17.6 23.9 30.1 38.5 47.7 56 14 14 21.2 20.2 31.8 27.3 6.1 4.2 7.4 4.7 9.2 3.8 1.2-.7 2.6-.9 3.1-.6.6.3 1 .2 1-.4 0-1.1 8.4-5.2 11.2-5.4.9-.1 1.5-.3 1.2-.6-.8-.8 9.7-5.2 10.7-4.5.5.3.8.1.7-.4-.2-.6-.1-1 .2-1 .5-.1 18.1-8.6 21.2-10.2 1.1-.6 1.8-.5 2.1.3.4.7.6.6.6-.4.1-1.7 9.8-6.2 11.4-5.2.6.3.7.1.4-.4-.4-.6.7-1.6 2.3-2.3 2.4-1 3.3-1 4.8.1 1.5 1.3 1.6 1.2.4-.2-1-1.4-1-1.8.5-2.4 1-.5 2.4-.9 3.2-1.1.8-.1 1.7-.8 2.1-1.5.4-.6 1.3-.8 1.9-.5.6.4 1.1.2 1.1-.4 0-.7.7-.9 1.6-.6.8.3 1.2.2.9-.3-.3-.5.5-1.3 1.7-1.7 1.3-.4 9.2-4 17.6-8.1 8.4-4 15.7-7.1 16.2-6.8.5.3 1.2-.1 1.7-.8.9-1.6 7.8-5 9.9-5 .8 0 1.4-.4 1.4-.9s.5-.6 1-.3c.6.3 1 .2 1-.3 0-1 5.8-3.6 7.3-3.3.4 0 .7-.4.7-1 0-.5.4-.7 1-.4.5.3 1 .1 1-.4 0-.6.3-1 .8-.9.4.1 6.1-2.5 12.6-5.6 6.6-3.2 12.5-5.8 13-5.9.6-.1 1.7-.8 2.5-1.5 1.1-1.1 1.5-1.1 2.2 0 .7 1 .9.9.9-.3 0-.9 1-2 2.3-2.4 2.9-1 2.1-.6 11.4-5.2 4.5-2.2 7.9-3.5 7.6-2.9-.4.6.3.3 1.5-.7 1.2-1.1 2.6-1.6 3.3-1.1.8.4 1 .3.5-.4-.4-.8.3-1.6 1.9-2.2 3.3-1.2 3.8-1.3 3-.1-.3.5 0 1.3.7 1.7.7.4 1 .4.6-.1-1.2-1.2 1.2-4.7 2.8-4.1.8.3 1.4.1 1.4-.4 0-.8 4.1-2.6 4.9-2.1.2.2.7-.2 1-.7 1.2-1.9 11.6-6 12.8-5 .7.6 1.4.5 1.9-.3.4-.8.3-.9-.4-.5s-1.2.4-1.2-.1c0-.4 1.9-1.5 4.3-2.4 7-2.8 8.2-3.2 8.7-3.4.3 0 2-.9 3.8-1.9 1.8-.9 3.9-1.5 4.5-1.3.7.2 1.8-.3 2.5-1 .8-.8 2.3-1.1 3.6-.8 1.5.5 1.7.4.7-.3-1.3-.9-.2-1.6 3.9-2.7.8-.3 6.4-2.5 8.5-3.5 5.5-2.5 11.9-5 12.7-5 .5 0 .6.5.2 1.2-.4.7-.3.8.5.4.6-.4.9-1.1.6-1.6-.6-.9 5.3-3.2 6.5-2.5.4.3 1-.1 1.3-.9.3-.7 1.7-1.6 3.1-2 1.4-.3 3.8-1.1 5.3-1.8 1.5-.6 3-1.2 3.3-1.2.3-.1 1-.4 1.6-.8.5-.4 5.7-2.5 11.5-4.8 5.7-2.3 12.5-5 15.2-6.1 2.6-1 4.7-1.6 4.7-1.3 0 .3.7-.2 1.6-1.1 1.4-1.3 1.9-1.4 2.5-.3.7 1 .9 1 .9-.2 0-.8 1.5-2 3.3-2.7 4.3-1.5 10.6-3.9 14.2-5.4 1.7-.7 3.2-1.3 3.5-1.3.3-.1 1-.5 1.7-.9.6-.4 1.4-.1 1.6.5.3.8.6.5.6-.6.1-1.3.6-1.7 2.1-1.3 1.1.3 1.8.1 1.5-.4-.3-.4.7-1.1 2.2-1.5 1.5-.4 3.3-1.1 4-1.6.7-.5 1.7-.7 2.3-.3.5.3 1 .3 1-.2 0-.8 11.6-5.8 13.5-5.8.6 0 1.6-.6 2.3-1.3 1.2-1.1 3.4-1.6 5.5-1.3.4 0 .7-.3.7-.8 0-.8 3.4-2.1 5.4-2 .5.1 1.2-.4 1.5-1 .4-.6 1.8-1.2 3.1-1.3 1.4-.2 3.1-.9 3.8-1.6.8-.7 1.8-1 2.3-.7.5.4.9.1.9-.5 0-.7.7-1 1.5-.6.8.3 1.5.1 1.5-.5s.6-.9 1.4-.6c.8.3 1.7-.1 2-.9.3-.8.9-1.3 1.3-1.3.4.1 1.6-.1 2.7-.6 1.2-.5 2.1-.3 2.8.6.8 1.1.9 1.1.5-.2-.4-1.2 1.3-2.4 7.3-4.8 4.5-1.9 8.4-3 9.2-2.5.7.4 1 .4.6-.1-.4-.4.4-1.4 1.8-2.2 2-1 3-1 4.1-.2 1.1 1 1.2.8.7-.6-.5-1.2-.4-1.6.3-1.2.6.4 1.6.1 2.2-.7.7-.8 1.9-1.3 2.9-1.2.9.2 2.3-.3 3-1.1 1.2-1.1 1.7-1.1 3-.1 1.1.9 1.4.9.9.1-1-1.6 4.6-4.5 8.9-4.6 1.9-.1 2.9-.4 2.3-.7-1.3-.9 7.1-4.1 8.5-3.3.6.3.8.2.3-.2-.9-1 6.3-3.6 7.6-2.8.6.3.7.1.3-.5-1-1.7 3.3-2.5 5.2-1 1.5 1.2 1.6 1.1.4-.4-1.1-1.4-1-1.7 1-2.4 1.3-.4 2.5-.8 2.8-.9.3 0 1.1-.4 1.9-.9.8-.5 1.7-.4 2.3.5.8 1.1.9 1 .4-.3-.4-1.3.2-2 1.9-2.4 1.3-.3 2.9-.3 3.6.2.7.4.9.3.5-.4-.9-1.6 9.5-5.3 11.2-4 .9.8 1.1.7.7-.3-.6-1.5 8.2-6 12.2-6.3 1.3 0 2.3-.4 2.3-.8 0-.3 2.1-1.4 4.8-2.4 2.6-1 5.3-2.2 6-2.7.6-.5 1.2-.6 1.2-.2 0 .4 1 .1 2.3-.7 1.2-.8 4-2.1 6.2-2.8 2.2-.7 7.3-2.8 11.3-4.6 4.1-1.9 7.7-3.2 8.2-2.9.5.3 1 .2 1.2-.3.1-.4 2.2-1.5 4.5-2.4 3.1-1.2 4.4-1.3 5.3-.4.8.8 1 .7.5-.5-.5-1.3.3-2 3.2-2.9 2.1-.7 5.6-2 7.8-3s6-2.6 8.5-3.5c2.5-1 6-2.4 7.8-3.2 1.8-.8 3.7-1.1 4.4-.7.6.4.8.3.5-.3-.6-1 3.8-3.4 6.8-3.8.6-.1 3.6-1.3 6.8-2.8 3.2-1.5 6.1-2.7 6.5-2.7.5 0 2.8-1 5.2-2.1 2.4-1.2 4.9-2.3 5.4-2.4.6-.2 2-.6 3.1-.9 1.1-.4 2.4-.6 2.9-.6.5.1 1.2-.2 1.5-.7 1.1-1.5 6.2-3.4 7.3-2.7.7.5.8.2.3-.6-.6-1-.4-1.2.8-.7 1 .3 1.7.2 1.7-.3 0-.4 1.6-1.4 3.5-2 1.9-.6 3.5-1.5 3.5-1.9 0-.4-1.6-1.6-3.5-2.7-1.9-1-3.5-2.2-3.5-2.6 0-.5-.6-.8-1.3-.8-1.9 0-4.9-3.5-4-4.5.5-.4.2-.5-.5-.1-1.6 1-9.4-4.2-8.5-5.7.3-.6.1-.7-.5-.3-.6.3-2.2-.5-3.6-1.9s-3-2.5-3.6-2.5c-.6 0-.8-.5-.5-1 .3-.6.1-1-.5-1-1.8 0-20-18.2-19.3-19.3.3-.6.2-.7-.4-.4-.9.5-8.5-7.4-12.3-12.7-.8-1.2-2.3-2.8-3.4-3.7-1.3-1.1-1.6-2-1-3 1-1.7 1.5-4.3.6-3.4-.4.4-.7 1.2-.7 1.8 0 .5-.6 1.2-1.2 1.4-.7.3-1.3-.2-1.3-1.1 0-.9-.4-1.6-1-1.6-.5 0-1-.6-1-1.3 0-.7-.9-1.8-2.1-2.5-1.2-.8-1.8-1.9-1.5-2.8.3-.8.2-1.3-.3-1-.5.4-2.2-1.4-3.8-3.9-1.5-2.5-3.2-4.5-3.7-4.5-.4 0-.5-.7-.2-1.6.3-.8.2-1.3-.3-1-.7.5-4.8-4.4-4.3-5.2.1-.1-.5-1-1.4-2-2.6-2.9-7.8-10.6-8-11.9-.1-.6-1.1-2.2-2.3-3.4-1.1-1.2-2.7-3.7-3.6-5.5-.8-1.8-1.9-3.6-2.4-3.9-.5-.2-1.9-2.4-3.1-4.7-1.2-2.4-3.5-6.2-5.1-8.6-1.6-2.4-2.9-4.5-2.9-4.8 0-.3-1.8-3.7-4.1-7.5-2.2-3.8-3.7-7.4-3.3-8.1.4-.6.3-.9-.2-.6-.5.4-2.4-1.8-4.1-4.8-1.8-3-2.8-5.2-2.3-4.9.6.3 1 .1 1-.4 0-.6-.7-1.1-1.6-1.1-.8 0-1.2-.5-.9-1 .3-.6.1-1-.6-1s-.9-.3-.6-.7c.4-.3.2-1.1-.3-1.8-2.5-3-7-12.7-6.4-13.7.4-.7.3-.8-.4-.4-1.1.6-1.6-.6-1.3-2.7 0-.4-.3-.7-.9-.7-.5 0-1-.7-1-1.5s-.4-1.5-.9-1.5c-.8 0-2.3-4.1-2-5.6 0-.4-.3-1-.9-1.3-1.1-.8-9.9-18.9-19.2-39.6-1.2-2.8-3-6.8-4-9-7.6-16.7-26.8-64.8-36.4-91.5-3.7-10.2-7.2-19.6-7.7-20.9-4.5-11-26.9-80.9-34.3-107.3-3.8-13.8-4.3-14.8-6.8-15.3-2.2-.5-28.5-.4-29.1.1z"/><path d="M889 482c0 .5.5 1 1.1 1 .5 0 .7-.5.4-1-.3-.6-.8-1-1.1-1-.2 0-.4.4-.4 1zM909 509.5c0 .5.5 1.7 1 2.5s1 1 1 .5c0-.6-.5-1.7-1-2.5s-1-1.1-1-.5zM917.5 522c-.3.5-.1 1 .4 1 .6 0 1.1-.5 1.1-1 0-.6-.2-1-.4-1-.3 0-.8.4-1.1 1zM921.5 530c.3.5.8 1 1.1 1 .2 0 .4-.5.4-1 0-.6-.5-1-1.1-1-.5 0-.7.4-.4 1zM949.6 557.8c-.2.4-.1 1.4.4 2.2.7 1.1.9.9.7-.8-.1-2.4-.3-2.6-1.1-1.4zM951.5 564c.3.5.8 1 1.1 1 .2 0 .4-.5.4-1 0-.6-.5-1-1.1-1-.5 0-.7.4-.4 1zM974.9 583.7c-1.3 1.6-1.2 1.7.4.4.9-.7 1.7-1.5 1.7-1.7 0-.8-.8-.3-2.1 1.3zM995.9 598.2c-.5 1.8-.6 3.8-.1 3.4.7-.8 1.2-3.6.6-3.6-.2 0-.4.1-.5.2zM999.6 604.7c-.6 1.4-.5 1.5.5.6.7-.7 1-1.5.7-1.8-.3-.3-.9.2-1.2 1.2zM1001.5 610c-.3.5-.1 1 .4 1 .6 0 1.1-.5 1.1-1 0-.6-.2-1-.4-1-.3 0-.8.4-1.1 1zM973.6 611.3c.3 1 .9 1.5 1.2 1.2.3-.3 0-1.1-.7-1.8-1-.9-1.1-.8-.5.6zM979.5 612c-.3.5-.1 1 .4 1 .6 0 1.1-.5 1.1-1 0-.6-.2-1-.4-1-.3 0-.8.4-1.1 1zM967.5 613.1c-.4.6-.5 1.2-.2 1.5.2.3.7-.2 1-1.1.7-1.7.1-2-.8-.4zM963.5 615.1c-.4.6-.5 1.2-.2 1.5.2.3.7-.2 1-1.1.7-1.7.1-2-.8-.4zM979.6 616.2c.3.5 1 .6 1.5.3 1.3-.9 1.1-1.2-.6-1.2-.8 0-1.2.4-.9.9zM962.6 620.2c.3.5 1 .6 1.5.3 1.3-.9 1.1-1.2-.6-1.2-.8 0-1.2.4-.9.9zM957 626c0 .5.5 1 1.1 1 .5 0 .7-.5.4-1-.3-.6-.8-1-1.1-1-.2 0-.4.4-.4 1zM965.5 626c.3.5.8 1 1.1 1 .2 0 .4-.5.4-1 0-.6-.5-1-1.1-1-.5 0-.7.4-.4 1zM939.5 628c.3.5.8 1 1.1 1 .2 0 .4-.5.4-1 0-.6-.5-1-1.1-1-.5 0-.7.4-.4 1zM957 629.4c0 .2.7.7 1.6 1 .8.3 1.2.2.9-.4-.6-1-2.5-1.4-2.5-.6zM927.7 630.7c-1 .9-.9 2.3.1 2.3.5 0 .9-.7.9-1.5 0-1.7-.1-1.8-1-.8zM937.5 634c-.3.5-.1 1 .4 1 .6 0 1.1-.5 1.1-1 0-.6-.2-1-.4-1-.3 0-.8.4-1.1 1zM941.5 634c-.3.5-.1 1 .4 1 .6 0 1.1-.5 1.1-1 0-.6-.2-1-.4-1-.3 0-.8.4-1.1 1zM923 636c0 .5.5 1 1.1 1 .5 0 .7-.5.4-1-.3-.6-.8-1-1.1-1-.2 0-.4.4-.4 1zM927 636c0 .5.5 1 1 1 .6 0 1-.5 1-1 0-.6-.4-1-1-1-.5 0-1 .4-1 1zM931.5 636c.3.5.8 1 1.1 1 .2 0 .4-.5.4-1 0-.6-.5-1-1.1-1-.5 0-.7.4-.4 1zM909 638c0 .5.5 1 1.1 1 .5 0 .7-.5.4-1-.3-.6-.8-1-1.1-1-.2 0-.4.4-.4 1zM913 638.1c0 .5.5.7 1 .4.6-.3 1-.8 1-1.1 0-.2-.4-.4-1-.4-.5 0-1 .5-1 1.1zM905.5 642c.3.5.8 1 1.1 1 .2 0 .4-.5.4-1 0-.6-.5-1-1.1-1-.5 0-.7.4-.4 1zM890.6 643.8c-.3.5.1.9.9.9s1.2-.4.9-.9c-.3-.4-.7-.8-.9-.8-.2 0-.6.4-.9.8zM905.5 646c.3.5.8 1 1.1 1 .2 0 .4-.5.4-1 0-.6-.5-1-1.1-1-.5 0-.7.4-.4 1zM909.5 646c-.3.5-.1 1 .4 1 .6 0 1.1-.5 1.1-1 0-.6-.2-1-.4-1-.3 0-.8.4-1.1 1zM901.5 650c-.3.5-.1 1 .4 1 .6 0 1.1-.5 1.1-1 0-.6-.2-1-.4-1-.3 0-.8.4-1.1 1zM905 650.1c0 .5.5.7 1 .4.6-.3 1-.8 1-1.1 0-.2-.4-.4-1-.4-.5 0-1 .5-1 1.1zM871.6 652.7c-.6 1.4-.5 1.5.5.6.7-.7 1-1.5.7-1.8-.3-.3-.9.2-1.2 1.2zM876 652c-.9.6-1 1-.3 1 .6 0 1.5-.5 1.8-1 .8-1.2.4-1.2-1.5 0zM897 652c0 .5.5 1 1.1 1 .5 0 .7-.5.4-1-.3-.6-.8-1-1.1-1-.2 0-.4.4-.4 1zM865 658.1c0 .5.5.7 1 .4.6-.3 1-.8 1-1.1 0-.2-.4-.4-1-.4-.5 0-1 .5-1 1.1zM869.5 658c.3.5.8 1 1.1 1 .2 0 .4-.5.4-1 0-.6-.5-1-1.1-1-.5 0-.7.4-.4 1zM865 662.1c0 .5.5.7 1 .4.6-.3 1-.8 1-1.1 0-.2-.4-.4-1-.4-.5 0-1 .5-1 1.1zM869.5 662c.3.5.8 1 1.1 1 .2 0 .4-.5.4-1 0-.6-.5-1-1.1-1-.5 0-.7.4-.4 1zM835 668c0 .5.5 1 1.1 1 .5 0 .7-.5.4-1-.3-.6-.8-1-1.1-1-.2 0-.4.4-.4 1zM859.3 668.5c0 .8.4 1.2.9.9.5-.3.6-1 .3-1.5-.9-1.3-1.2-1.1-1.2.6zM855.6 669.8c-.3.5.1.9.9.9s1.2-.4.9-.9c-.3-.4-.7-.8-.9-.8-.2 0-.6.4-.9.8zM851.9 672.7c-1.3 1.6-1.2 1.7.4.4 1.6-1.3 2.1-2.1 1.3-2.1-.2 0-1 .8-1.7 1.7zM839.6 676.7c-.6 1.4-.5 1.5.5.6.7-.7 1-1.5.7-1.8-.3-.3-.9.2-1.2 1.2zM835.6 677.8c-.3.5.1.9.9.9s1.2-.4.9-.9c-.3-.4-.7-.8-.9-.8-.2 0-.6.4-.9.8zM795 684.1c0 .5.5.7 1 .4.6-.3 1-.8 1-1.1 0-.2-.4-.4-1-.4-.5 0-1 .5-1 1.1zM799 684c0 .5.5 1 1 1 .6 0 1-.5 1-1 0-.6-.4-1-1-1-.5 0-1 .4-1 1zM803.5 684c-.3.5-.1 1 .4 1 .6 0 1.1-.5 1.1-1 0-.6-.2-1-.4-1-.3 0-.8.4-1.1 1zM821 684c0 .5.5 1 1.1 1 .5 0 .7-.5.4-1-.3-.6-.8-1-1.1-1-.2 0-.4.4-.4 1zM799.6 688.2c.3.5 1 .6 1.5.3 1.3-.9 1.1-1.2-.6-1.2-.8 0-1.2.4-.9.9zM793 690.1c0 .5.5.7 1 .4.6-.3 1-.8 1-1.1 0-.2-.4-.4-1-.4-.5 0-1 .5-1 1.1zM797 690.1c0 .5.5.7 1 .4.6-.3 1-.8 1-1.1 0-.2-.4-.4-1-.4-.5 0-1 .5-1 1.1zM795.4 693.8c.4.3 1.4.7 2.2.8.9.1 1.3 0 1-.4-.4-.3-1.4-.7-2.2-.8-.9-.1-1.3 0-1 .4zM779.5 699.9c-.3.5-.2 1.2.3 1.5.5.3.9-.1.9-.9 0-1.7-.3-1.9-1.2-.6zM742.6 707.8c-.3.5.1.9.9.9s1.2-.4.9-.9c-.3-.4-.7-.8-.9-.8-.2 0-.6.4-.9.8zM753 710c0 .5.5 1 1.1 1 .5 0 .7-.5.4-1-.3-.6-.8-1-1.1-1-.2 0-.4.4-.4 1zM756.6 710.2c.3.5 1 .6 1.5.3 1.3-.9 1.1-1.2-.6-1.2-.8 0-1.2.4-.9.9zM745.5 714c-.3.5-.1 1 .4 1 .6 0 1.1-.5 1.1-1 0-.6-.2-1-.4-1-.3 0-.8.4-1.1 1zM714.5 720c-.3.6.1.7.9.4 1.8-.7 2.1-1.4.7-1.4-.6 0-1.3.4-1.6 1zM718.5 720c-.3.6.1.7.9.4 1.8-.7 2.1-1.4.7-1.4-.6 0-1.3.4-1.6 1zM701 722c0 .5.5 1 1.1 1 .5 0 .7-.5.4-1-.3-.6-.8-1-1.1-1-.2 0-.4.4-.4 1zM705.5 722c-.3.5-.1 1 .4 1 .6 0 1.1-.5 1.1-1 0-.6-.2-1-.4-1-.3 0-.8.4-1.1 1zM709.5 722c-.3.5-.1 1 .4 1 .6 0 1.1-.5 1.1-1 0-.6-.2-1-.4-1-.3 0-.8.4-1.1 1zM693.5 726c-.3.5-.1 1 .4 1 .6 0 1.1-.5 1.1-1 0-.6-.2-1-.4-1-.3 0-.8.4-1.1 1zM697 726.1c0 .5.5.7 1 .4.6-.3 1-.8 1-1.1 0-.2-.4-.4-1-.4-.5 0-1 .5-1 1.1zM701.5 726c-.3.5-.1 1 .4 1 .6 0 1.1-.5 1.1-1 0-.6-.2-1-.4-1-.3 0-.8.4-1.1 1zM705 726c0 .5.5 1 1.1 1 .5 0 .7-.5.4-1-.3-.6-.8-1-1.1-1-.2 0-.4.4-.4 1zM701 730.1c0 .5.5.7 1 .4.6-.3 1-.8 1-1.1 0-.2-.4-.4-1-.4-.5 0-1 .5-1 1.1zM705.5 730c.3.5.8 1 1.1 1 .2 0 .4-.5.4-1 0-.6-.5-1-1.1-1-.5 0-.7.4-.4 1zM667.6 735.8c-.3.5.1.9.9.9s1.2-.4.9-.9c-.3-.4-.7-.8-.9-.8-.2 0-.6.4-.9.8zM667.5 740c.3.5.8 1 1.1 1 .2 0 .4-.5.4-1 0-.6-.5-1-1.1-1-.5 0-.7.4-.4 1zM661 742c0 .5.5 1 1.1 1 .5 0 .7-.5.4-1-.3-.6-.8-1-1.1-1-.2 0-.4.4-.4 1zM667.3 744.5c0 .8.4 1.2.9.9.4-.3.8-.9.8-1.5 0-.5-.4-.9-.8-.9-.5 0-.9.7-.9 1.5zM671.3 744.7c0 .9.4 1 1.4.2.7-.6 1.3-1.2 1.3-1.4 0-.1-.6-.2-1.3-.2-.8 0-1.4.6-1.4 1.4zM640 746c-1.2.7-1 .9.7.7 1.2 0 1.9-.5 1.7-.9-.6-1-.6-1-2.4.2zM645.5 746c-.3.5-.1 1 .4 1 .6 0 1.1-.5 1.1-1 0-.6-.2-1-.4-1-.3 0-.8.4-1.1 1zM657.5 746c-.3.5-.1 1 .4 1 .6 0 1.1-.5 1.1-1 0-.6-.2-1-.4-1-.3 0-.8.4-1.1 1zM661 746.1c0 .5.5.7 1 .4.6-.3 1-.8 1-1.1 0-.2-.4-.4-1-.4-.5 0-1 .5-1 1.1zM637.5 750c.3.5.8 1 1.1 1 .2 0 .4-.5.4-1 0-.6-.5-1-1.1-1-.5 0-.7.4-.4 1zM645.5 750c-.3.5-.1 1 .4 1 .6 0 1.1-.5 1.1-1 0-.6-.2-1-.4-1-.3 0-.8.4-1.1 1zM629 752.1c0 .5.5.7 1 .4.6-.3 1-.8 1-1.1 0-.2-.4-.4-1-.4-.5 0-1 .5-1 1.1zM633.5 754c-.3.5-.1 1 .4 1 .6 0 1.1-.5 1.1-1 0-.6-.2-1-.4-1-.3 0-.8.4-1.1 1zM637.5 754c.3.5.8 1 1.1 1 .2 0 .4-.5.4-1 0-.6-.5-1-1.1-1-.5 0-.7.4-.4 1zM641 754.1c0 .5.5.7 1 .4.6-.3 1-.8 1-1.1 0-.2-.4-.4-1-.4-.5 0-1 .5-1 1.1zM645 754.1c0 .5.5.7 1 .4.6-.3 1-.8 1-1.1 0-.2-.4-.4-1-.4-.5 0-1 .5-1 1.1zM633.5 758c-.3.5-.1 1 .4 1 .6 0 1.1-.5 1.1-1 0-.6-.2-1-.4-1-.3 0-.8.4-1.1 1zM641 758c0 .5.5 1 1.1 1 .5 0 .7-.5.4-1-.3-.6-.8-1-1.1-1-.2 0-.4.4-.4 1zM609.3 759.5c0 .8.4 1.2.9.9.5-.3.6-1 .3-1.5-.9-1.3-1.2-1.1-1.2.6zM603.5 762.9c-.3.5-.2 1.2.3 1.5.5.3.9-.1.9-.9 0-1.7-.3-1.9-1.2-.6zM594.9 767.7c-1.3 1.6-1.2 1.7.4.4.9-.7 1.7-1.5 1.7-1.7 0-.8-.8-.3-2.1 1.3zM603.3 767.5c0 .8.4 1.5.9 1.5.4 0 .8-.4.8-.9 0-.6-.4-1.2-.8-1.5-.5-.3-.9.1-.9.9zM587.3 768.5c0 .8.4 1.2.9.9.5-.3.6-1 .3-1.5-.9-1.3-1.2-1.1-1.2.6zM598.6 767.8c-.3.5.1.9.9.9s1.5-.4 1.5-.9c0-.4-.4-.8-.9-.8-.6 0-1.2.4-1.5.8zM609 770c0 .5.5 1 1.1 1 .5 0 .7-.5.4-1-.3-.6-.8-1-1.1-1-.2 0-.4.4-.4 1zM578.7 772.1c.7.7 1.5 1 1.8.7.3-.3-.2-.9-1.2-1.2-1.4-.6-1.5-.5-.6.5zM587.5 771.9c-.3.5-.2 1.2.3 1.5.5.3.9-.1.9-.9 0-1.7-.3-1.9-1.2-.6zM603.5 772c-.3.5-.1 1 .4 1 .6 0 1.1-.5 1.1-1 0-.6-.2-1-.4-1-.3 0-.8.4-1.1 1zM573.5 774c.3.5.8 1 1.1 1 .2 0 .4-.5.4-1 0-.6-.5-1-1.1-1-.5 0-.7.4-.4 1zM569.5 778c-.3.5-.1 1 .4 1 .6 0 1.1-.5 1.1-1 0-.6-.2-1-.4-1-.3 0-.8.4-1.1 1zM573.5 778c.3.5.8 1 1.1 1 .2 0 .4-.5.4-1 0-.6-.5-1-1.1-1-.5 0-.7.4-.4 1zM558.5 780c-.3.6.1.7.9.4 1.8-.7 2.1-1.4.7-1.4-.6 0-1.3.4-1.6 1zM569.5 782c-.3.5-.1 1 .4 1 .6 0 1.1-.5 1.1-1 0-.6-.2-1-.4-1-.3 0-.8.4-1.1 1zM546.6 783.8c-.3.5.1.9.9.9s1.2-.4.9-.9c-.3-.4-.7-.8-.9-.8-.2 0-.6.4-.9.8zM559 784c0 .5.5 1 1.1 1 .5 0 .7-.5.4-1-.3-.6-.8-1-1.1-1-.2 0-.4.4-.4 1zM547 788.1c0 .5.5.7 1 .4.6-.3 1-.8 1-1.1 0-.2-.4-.4-1-.4-.5 0-1 .5-1 1.1zM559.6 788.7c-.6 1.4-.5 1.5.5.6.7-.7 1-1.5.7-1.8-.3-.3-.9.2-1.2 1.2zM563 787.4c0 .2.7.7 1.6 1 .8.3 1.2.2.9-.4-.6-1-2.5-1.4-2.5-.6zM537 790.1c0 .5.5.7 1 .4.6-.3 1-.8 1-1.1 0-.2-.4-.4-1-.4-.5 0-1 .5-1 1.1zM541 790.1c0 .5.5.7 1 .4.6-.3 1-.8 1-1.1 0-.2-.4-.4-1-.4-.5 0-1 .5-1 1.1zM547 792c0 .5.5 1 1 1 .6 0 1-.5 1-1 0-.6-.4-1-1-1-.5 0-1 .4-1 1zM541 794c0 .5.5 1 1.1 1 .5 0 .7-.5.4-1-.3-.6-.8-1-1.1-1-.2 0-.4.4-.4 1zM547 795.9c0 .6.4 1.3 1 1.6.6.3.7-.1.4-.9-.7-1.8-1.4-2.1-1.4-.7zM521.5 798c-.3.5-.1 1 .4 1 .6 0 1.1-.5 1.1-1 0-.6-.2-1-.4-1-.3 0-.8.4-1.1 1zM525 798.1c0 .5.5.7 1 .4.6-.3 1-.8 1-1.1 0-.2-.4-.4-1-.4-.5 0-1 .5-1 1.1zM541.5 798c-.3.5-.1 1 .4 1 .6 0 1.1-.5 1.1-1 0-.6-.2-1-.4-1-.3 0-.8.4-1.1 1zM530 799.4c0 .2.8 1 1.8 1.7 1.5 1.3 1.6 1.2.3-.4s-2.1-2.1-2.1-1.3zM511.5 803.9c-.3.5-.2 1.2.3 1.5.5.3.9-.1.9-.9 0-1.7-.3-1.9-1.2-.6zM515 804c0 .5.5 1 1.1 1 .5 0 .7-.5.4-1-.3-.6-.8-1-1.1-1-.2 0-.4.4-.4 1zM519 803.9c0 .6.4 1.3 1 1.6.6.3.7-.1.4-.9-.7-1.8-1.4-2.1-1.4-.7zM515.3 808.5c0 .8.4 1.2.9.9.5-.3.6-1 .3-1.5-.9-1.3-1.2-1.1-1.2.6zM491.5 810.9c-.3.5-.2 1.2.3 1.5.5.3.9-.1.9-.9 0-1.7-.3-1.9-1.2-.6zM494.7 812.1c.7.7 1.5 1 1.8.7.3-.3-.2-.9-1.2-1.2-1.4-.6-1.5-.5-.6.5zM499 812.1c0 .5.5.7 1 .4.6-.3 1-.8 1-1.1 0-.2-.4-.4-1-.4-.5 0-1 .5-1 1.1zM503 811.9c0 .6.4 1.3 1 1.6.6.3.7-.1.4-.9-.7-1.8-1.4-2.1-1.4-.7zM483.5 818.9c-.3.5-.2 1.2.3 1.5.5.3.9-.1.9-.9 0-1.7-.3-1.9-1.2-.6zM461 826c0 .5.5 1 1.1 1 .5 0 .7-.5.4-1-.3-.6-.8-1-1.1-1-.2 0-.4.4-.4 1zM461.5 830c-.3.5-.1 1 .4 1 .6 0 1.1-.5 1.1-1 0-.6-.2-1-.4-1-.3 0-.8.4-1.1 1zM465.5 830c-.3.5-.1 1 .4 1 .6 0 1.1-.5 1.1-1 0-.6-.2-1-.4-1-.3 0-.8.4-1.1 1zM425 842c0 .5.5 1 1.1 1 .5 0 .7-.5.4-1-.3-.6-.8-1-1.1-1-.2 0-.4.4-.4 1zM429.5 842c-.3.5-.1 1 .4 1 .6 0 1.1-.5 1.1-1 0-.6-.2-1-.4-1-.3 0-.8.4-1.1 1zM433.3 844.9c0 1.1.5 1.8.9 1.5.4-.3.5-1.1.1-1.9-.7-2.1-1.2-1.9-1 .4zM425 846c0 .5.5 1 1.1 1 .5 0 .7-.5.4-1-.3-.6-.8-1-1.1-1-.2 0-.4.4-.4 1zM429.5 846c-.3.5-.1 1 .4 1 .6 0 1.1-.5 1.1-1 0-.6-.2-1-.4-1-.3 0-.8.4-1.1 1zM409.5 850c.3.5.8 1 1.1 1 .2 0 .4-.5.4-1 0-.6-.5-1-1.1-1-.5 0-.7.4-.4 1zM413 850c0 .5.5 1 1.1 1 .5 0 .7-.5.4-1-.3-.6-.8-1-1.1-1-.2 0-.4.4-.4 1zM377.5 866c-.3.5-.1 1 .4 1 .6 0 1.1-.5 1.1-1 0-.6-.2-1-.4-1-.3 0-.8.4-1.1 1zM381.5 866c.3.5.8 1 1.1 1 .2 0 .4-.5.4-1 0-.6-.5-1-1.1-1-.5 0-.7.4-.4 1zM377.5 870c-.3.5-.1 1 .4 1 .6 0 1.1-.5 1.1-1 0-.6-.2-1-.4-1-.3 0-.8.4-1.1 1zM341.5 882c-.3.5-.1 1 .4 1 .6 0 1.1-.5 1.1-1 0-.6-.2-1-.4-1-.3 0-.8.4-1.1 1zM345 882.1c0 .5.5.7 1 .4.6-.3 1-.8 1-1.1 0-.2-.4-.4-1-.4-.5 0-1 .5-1 1.1zM349 882c0 .5.5 1 1.1 1 .5 0 .7-.5.4-1-.3-.6-.8-1-1.1-1-.2 0-.4.4-.4 1zM353.5 882c.3.5.8 1 1.1 1 .2 0 .4-.5.4-1 0-.6-.5-1-1.1-1-.5 0-.7.4-.4 1z"/></svg>